<mxfile host="app.diagrams.net" agent="Mozilla/5.0 (Windows NT 10.0; Win64; x64) AppleWebKit/537.36 (KHTML, like Gecko) Chrome/128.0.0.0 Safari/537.36 Edg/128.0.0.0" version="24.7.15">
  <diagram id="prtHgNgQTEPvFCAcTncT" name="Page-1">
    <mxGraphModel dx="874" dy="626" grid="1" gridSize="10" guides="1" tooltips="1" connect="1" arrows="1" fold="1" page="1" pageScale="1" pageWidth="827" pageHeight="1169" math="0" shadow="0">
      <root>
        <mxCell id="0" />
        <mxCell id="1" parent="0" />
        <mxCell id="iA2zpLoI-TvYrXFNZutO-4" value="" style="edgeStyle=orthogonalEdgeStyle;rounded=0;orthogonalLoop=1;jettySize=auto;html=1;fillColor=#d5e8d4;strokeColor=#82b366;" edge="1" parent="1" source="iA2zpLoI-TvYrXFNZutO-1" target="iA2zpLoI-TvYrXFNZutO-2">
          <mxGeometry relative="1" as="geometry" />
        </mxCell>
        <mxCell id="iA2zpLoI-TvYrXFNZutO-9" value="" style="edgeStyle=orthogonalEdgeStyle;rounded=0;orthogonalLoop=1;jettySize=auto;html=1;fillColor=#fff2cc;strokeColor=#d6b656;" edge="1" parent="1" source="iA2zpLoI-TvYrXFNZutO-1" target="iA2zpLoI-TvYrXFNZutO-8">
          <mxGeometry relative="1" as="geometry" />
        </mxCell>
        <mxCell id="iA2zpLoI-TvYrXFNZutO-1" value="Set Current Ocean Level" style="rounded=0;whiteSpace=wrap;html=1;fillColor=#dae8fc;strokeColor=#6c8ebf;" vertex="1" parent="1">
          <mxGeometry x="354" y="20" width="120" height="60" as="geometry" />
        </mxCell>
        <mxCell id="iA2zpLoI-TvYrXFNZutO-11" value="" style="edgeStyle=orthogonalEdgeStyle;rounded=0;orthogonalLoop=1;jettySize=auto;html=1;fillColor=#d5e8d4;strokeColor=#82b366;" edge="1" parent="1" source="iA2zpLoI-TvYrXFNZutO-2" target="iA2zpLoI-TvYrXFNZutO-5">
          <mxGeometry relative="1" as="geometry" />
        </mxCell>
        <mxCell id="iA2zpLoI-TvYrXFNZutO-2" value="Calculate Current Ocean Level plus the product of Rise Rate and set number of years" style="rounded=1;whiteSpace=wrap;html=1;fillColor=#ffe6cc;strokeColor=#d79b00;" vertex="1" parent="1">
          <mxGeometry x="20" y="140" width="390" height="60" as="geometry" />
        </mxCell>
        <mxCell id="iA2zpLoI-TvYrXFNZutO-5" value="Display message indicating the amount the ocean level increased from current level" style="rounded=1;whiteSpace=wrap;html=1;fillColor=#d5e8d4;strokeColor=#82b366;" vertex="1" parent="1">
          <mxGeometry x="219" y="380" width="390" height="60" as="geometry" />
        </mxCell>
        <mxCell id="iA2zpLoI-TvYrXFNZutO-10" value="" style="edgeStyle=orthogonalEdgeStyle;rounded=0;orthogonalLoop=1;jettySize=auto;html=1;fillColor=#fff2cc;strokeColor=#d6b656;" edge="1" parent="1" source="iA2zpLoI-TvYrXFNZutO-8" target="iA2zpLoI-TvYrXFNZutO-5">
          <mxGeometry relative="1" as="geometry" />
        </mxCell>
        <mxCell id="iA2zpLoI-TvYrXFNZutO-8" value="Calculate Current Ocean Level plus the product of Rise Rate and number of years selected by user" style="rounded=1;whiteSpace=wrap;html=1;fillColor=#fff2cc;strokeColor=#d6b656;" vertex="1" parent="1">
          <mxGeometry x="437" y="140" width="390" height="60" as="geometry" />
        </mxCell>
      </root>
    </mxGraphModel>
  </diagram>
</mxfile>
